# xmcd
#
# Track frame offsets:
#	150
#	20063
#	35983
#	57816
#	79631
#	98012
#	117296
#	137142
#	154357
#	171515
#	185832
#	202861
#
# Disc length: 2960 seconds
# Revision: 0
# Processed by: cddbd v1.5.2PL0 Copyright (c) Steve Scherf et al.
# Submitted via: dBpowerAMP V12.0
#
DISCID=a90b8e0c
DTITLE=Toni Braxton - The heat
DYEAR=2010
DGENRE=R&B
TTITLE0=He wasn't man enough
TTITLE1=The heat
TTITLE2=Spanish guitar
TTITLE3=Just be a man about it
TTITLE4=Gimme some
TTITLE5=I'm still breathing
TTITLE6=Fairytale
TTITLE7=The art of love
TTITLE8=Speaking in toungues
TTITLE9=Maybe
TTITLE10=You've been wrong
TTITLE11=Never just for a ring
EXTD=
EXTT0=
EXTT1=
EXTT2=
EXTT3=
EXTT4=
EXTT5=
EXTT6=
EXTT7=
EXTT8=
EXTT9=
EXTT10=
EXTT11=
PLAYORDER=
